<?xml version="1.0" encoding="utf-8"?>
<!-- Generator: Adobe Illustrator 18.1.1, SVG Export Plug-In . SVG Version: 6.00 Build 0)  -->
<svg version="1.1" id="Layer_1" xmlns="http://www.w3.org/2000/svg" xmlns:xlink="http://www.w3.org/1999/xlink" x="0px" y="0px"
	 viewBox="0 0 1920 1080" enable-background="new 0 0 1920 1080" xml:space="preserve">
<path fill="#FFFFFF" stroke="#1F2020" stroke-width="20" stroke-miterlimit="10" d="M729.9,99.2c62.1-21.4,116.7-6,131-1.8
	c122.8,36.2,219.7,188.2,191.1,320.4c-3.3,15-23.8,110-103.8,142c-68.4,27.4-136.2-9.1-156.6-20.1c-73.3-39.5-101.8-106.8-142-202.1
	c-29.2-69.2-43.5-104.5-29.1-145.6C642.8,129.1,714.1,104.7,729.9,99.2z"/>
<path fill="none" stroke="#1F2020" stroke-width="20" stroke-miterlimit="10" d="M726.9,485.7c-62.3-85.2-120.5-120.2-184.5-104.4
	c-8,1.9-39.7,9.8-58.3,38.2c-20.8,32.1-21.5,85.2,9.5,105.1c12,7.8,18.2,13.7,25.1,18"/>
<path fill="#9FD07D" stroke="#1F2020" stroke-width="20" stroke-miterlimit="10" d="M622.6,718.1c31.5,69.2,47.1,104.6,40,147.5
	C649,947.4,572.3,993.4,557,1002c-113.8,64.5-295.5,30.9-378.6-92.8c-40.2-59.9-60.9-146.1-32.7-231.2c2.3-6.9,46.3-133,174.7-169.2
	c17.8-5,86.6-24.5,156.6,7.3C544.4,546.7,571.6,606.3,622.6,718.1z"/>
<path fill="none" stroke="#1F2020" stroke-width="20" stroke-miterlimit="10" d="M998.6,236c4.4-5,25.1-13.9,55.1-16.1
	c17-1.2,34.5,1.9,41,2.6"/>
<path fill="#FFFFFF" stroke="#1F2020" stroke-width="10" stroke-miterlimit="10" d="M963.7,323.6c1.4-2.3,6.6-10.5,14.7-10.9
	c10.5-0.6,20,12.2,20.3,23.5c0,2-0.1,11.3-7.2,16.5c-4.9,3.6-10.4,3.1-12.6,3c-1.1-0.1-13.8-1.2-18.3-11.8
	C956.7,334.8,962.1,326.1,963.7,323.6z"/>
<path fill="none" stroke="#1F2020" stroke-width="20" stroke-miterlimit="10" d="M963.7,155.5c2.4-6.6,11.5-29.1,35.7-43
	c24.3-13.9,48.5-8.1,56.7-9.1c4.5-0.6,5.7-2.6,12.4-3.1"/>
<path fill="none" stroke="#1F2020" stroke-width="20" stroke-miterlimit="10" d="M975.6,170.1c3-7.2,10.2-21.6,25.6-32.9
	c25.7-18.9,54.2-12.7,60.2-11.7"/>
<path fill="none" stroke="#1F2020" stroke-width="20" stroke-miterlimit="10" d="M1062.1,103c5.9-5.9,9.7-6.7,14.2-6.3
	c1.3,0.1,2.5,0,3.8-0.2c11.6-1.9,18.9,12.3,21.3,19.8c3.7,11.7-4.5,24.9-16.5,28c-12.6,3.4-30.5-7.7-32.4-23.1"/>
<path fill="none" stroke="#1F2020" stroke-width="20" stroke-miterlimit="10" d="M988.4,227c5.7-6.7,23.4-18.9,44.3-25.8
	c33.8-11.2,56.8,2.3,66.2-1.9"/>
<path fill="none" stroke="#1F2020" stroke-width="20" stroke-miterlimit="10" d="M1094.9,200.5c12.2-3.8,13.3-5.2,24.3-5.2
	c1.5,0,2.9,0.1,4.3,0.6c10.6,3.4,12.3,18.5,11.7,29.3c-0.6,11.9-9.9,21.5-20.4,23.5c-13.5,2.5-11.2-28-27.6-27"/>
<g>
	<path fill="#1F2020" d="M1128.9,550.1c0-69.7-0.5-111.4-1.3-125c-1.6-24.8-2.4-39.2-2.4-43.3s1.2-7.4,3.6-10
		c2.4-2.5,5.4-3.7,8.7-3.7c3.4,0,6.1,1.2,8.4,3.7c2.1,2.5,3.3,5.7,3.3,9.4c0,11.3-0.5,26.6-1.3,46c-1.8,45.5-2.7,79.4-2.7,101.6
		c0,5.4,1.7,10.6,5.3,15.5c3.5,4.9,5.3,9.4,5.3,13.3c0,3.9-1.3,7.2-4,9.8s-5.8,3.9-9.1,3.9C1133.3,571.3,1128.9,564.2,1128.9,550.1z
		"/>
	<path fill="#1F2020" d="M1197.9,416.8c-3.9,0-7.1-1.1-9.4-3.3c-2.3-2.1-3.5-5.3-3.5-9.4s1.4-7.7,4.3-10.7s6.2-4.4,10.2-4.4
		c3.9,0,7.1,1.2,9.5,3.4s3.6,5.4,3.6,9.5s-1.4,7.6-4.4,10.5C1205.3,415.3,1201.8,416.8,1197.9,416.8z M1189.3,550.1
		c0-22.6-0.5-42.3-1.3-59.4c-0.9-17-1.3-27.1-1.3-30.1c0-3.1,1.2-6,3.6-9s5.4-4.4,8.7-4.4s6.1,1.3,8.4,4.1c2.1,2.8,3.3,6.8,3.3,12.1
		s-0.7,14.1-1.9,26.6s-1.9,25.4-1.9,38.9c0,5.4,1.2,10.6,3.4,15.5s3.4,9.4,3.4,13.4s-1.2,7.3-3.4,9.8s-5.3,3.7-9.1,3.7
		s-6.7-2.1-8.7-6.4C1190.3,560.6,1189.3,555.7,1189.3,550.1z"/>
	<path fill="#1F2020" d="M1251.7,505.2l-1.9-44.9c0-3.7,1.2-6.9,3.6-9.4s5.4-3.7,8.7-3.7s6.1,1.2,8.4,3.6c2.1,2.4,3.3,5.4,3.3,9
		s-0.1,6.2-0.3,8.1c10.4-13.8,21.4-20.7,33-20.7c13.6,0,23.4,8.2,29.3,24.5c11.4-16.3,23.8-24.5,37.1-24.5c17,0,28,12.7,33,37.9
		l9.4,46.3c0.9,4.3,3.1,8.8,6.4,13.5c3.4,4.7,5.1,9.2,5.1,13.4s-1.3,7.4-3.9,9.7c-2.6,2.2-5.7,3.4-9.3,3.4
		c-8.3,0-13.6-7.1-16.1-21.2l-10-56.2c-1.2-7.9-3.8-14.3-7.8-19.4c-3.9-5-9-7.5-15.4-7.5c-8.4,0-16.5,7.3-24.2,21.8l8.6,42.4
		c0.9,4.3,3.1,8.8,6.4,13.5c3.4,4.7,5.1,9.2,5.1,13.4s-1.3,7.4-3.9,9.7c-2.6,2.2-5.7,3.4-9.3,3.4c-8.3,0-13.6-7.1-16.1-21.2
		l-10-56.2c-1.2-7.4-4.3-13.6-9.1-18.9c-4.8-5.3-10.7-8-17.4-8c-6.7,0-12.1,2.6-16.1,7.8s-6.1,10.4-6.4,15.5s-0.4,10.1-0.4,14.9
		l1.9,53.2c0,3.7-1.1,6.8-3.3,9.3c-2.1,2.4-4.9,3.6-8.4,3.6c-3.4,0-6.3-1.2-8.7-3.6c-2.4-2.4-3.6-5.5-3.6-9.3L1251.7,505.2z"/>
	<path fill="#1F2020" d="M1468,647.6c-3.4,0-6.4-1.3-9-3.9s-3.9-6.3-3.9-11.1c0-0.9,0.9-6.8,2.6-17.8c1.7-10.9,2.6-29.2,2.6-54.8
		s-0.5-49.1-1.3-70.5c-0.2-4.1-1.7-8.8-4.7-14.2s-4.4-10.1-4.4-14.2s1.3-7.5,4-10.1s5.8-3.9,9.1-3.9c8.9,0,13.4,7.1,13.4,21.2V481
		c7.5-10.4,16.6-18.6,27.3-24.8c10.7-6,20.5-9.1,29.7-9.1c12,0,21.7,4.4,29,13.3c7.4,8.8,11,19.2,11,31s-2.3,22.8-7,33
		s-10.6,18.6-17.8,25.2s-14.8,11.9-22.8,15.7c-8.1,3.8-15.7,5.8-23.1,5.8c-8.6,0-12.9-4.2-12.9-12.7c0-3.7,1.3-6.5,4-8.4
		s5.4-2.7,8.1-2.7s5.5,0.5,8.4,1.3s5.7,1.3,8.2,1.3c10.8,0,19.8-4,27.2-12c7.4-8,11-17.7,11-29.2c0-11.4-3.6-21.1-11-29
		s-16.4-11.8-27.2-11.8c-14,0-24.2,5.7-30.8,16.9c-6.5,11.3-9.8,26.7-9.8,46.3c0,10.4,0.7,26.8,2.1,49.2s2.1,37.6,2.1,45.7
		C1482.3,640.5,1477.5,647.6,1468,647.6z"/>
	<path fill="#1F2020" d="M1600.3,567.3c-4.1-2.7-6.1-6-6.1-10.1c0-4,1.2-7.3,3.6-9.7s4.8-3.6,7.3-3.6c2.4,0,6.4,1.1,12,3.3
		c5.6,2.1,11.3,3.3,17.4,3.3s12.1-1.5,18.1-4.7s9.1-7,9.1-11.5c0-4.6-2.3-8.1-6.8-10.7c-4.6-2.5-10.1-4.5-16.5-6s-12.9-3.3-19.4-5.3
		c-6.4-2-12-5-16.5-9c-4.6-4-6.8-9-6.8-14.9c0-9.7,6.1-18.9,18.5-27.8c12.4-8.8,26-13.3,40.9-13.3c7.2,0,12.7,1.3,16.5,3.9
		c3.8,2.6,5.8,6,5.8,10.1s-1.2,7.4-3.6,9.8c-2.4,2.4-4.8,3.6-7.3,3.6c-2.4,0-6.4-1.1-12-3.3c-5.6-2.1-11.3-3.3-17.4-3.3
		c-6,0-11.2,1.2-15.6,3.7s-6.6,5.6-6.6,9.1c0,3.6,3.5,6.7,10.4,9.4s14.5,4.8,22.8,6.4s15.8,4.8,22.8,9.5
		c6.9,4.7,10.4,10.8,10.4,18.4c0,11.6-6.8,22.3-20.4,32s-28.3,14.5-44.1,14.5C1609.8,571.3,1604.5,570,1600.3,567.3z"/>
	<path fill="#1F2020" d="M1758.9,516.2l-32-2.7c-3.1,0-5.5,0.3-7.3,0.8c1.1,10.2,5.4,18.7,13.1,25.5c7.6,6.8,16.6,10.2,27,10.2
		c10.1,0,19.1-3.6,27.2-11c2.9-2.5,5-3.7,6.4-3.7s2.7,0.6,3.7,1.6c1.1,1.1,1.6,2.2,1.6,3.5c0,5.2-5.1,11.6-15.2,19.4
		c-10.1,7.7-21.6,11.5-34.4,11.5s-23.9-5.2-33.3-15.6c-9.4-10.4-14.1-23.3-14.1-38.7c0-19.7,7.4-36.3,22.3-49.7s31.3-20.2,49.2-20.2
		c7.5,0,13.6,1.3,18.4,3.9c4.7,2.6,7.1,6,7.1,10s-1.2,7.3-3.6,9.8s-4.8,3.7-7.1,3.7c-2.3,0-6.3-1.1-12-3.3c-5.7-2.1-11-3.3-16.2-3.3
		c-9.7,0-18,2.9-25.2,8.7s-11.8,13.1-14.1,21.6l37.1-2.1c8.3,0,12.4,3.3,12.4,9.7C1770,512.8,1766.2,516.2,1758.9,516.2z"/>
</g>
<g>
	<path fill="#1F2020" d="M720,890.1c1.8-7.1,3.6-17.5,5.3-31c1.7-13.6,2.6-29.2,2.6-46.8c0-17.6-0.8-41.7-2.4-72.3h-8.4
		c-7,0-10.5-3.1-10.5-9.1s3.5-9.1,10.5-9.1c3.6,0,6.2,0.1,8.1,0.3c0.7-22.4,9.2-41.4,25.4-56.8c16.2-15.5,32.4-23.2,48.8-23.2
		c6.4,0,11.8,1.2,16,3.5s6.3,5.7,6.3,10.1s-1.2,7.8-3.6,10.2c-2.4,2.4-4.8,3.6-7.1,3.6s-6.3-1.1-12.1-3.1s-11.4-3.1-16.9-3.1
		c-11.1,0-20.6,4.9-28.5,14.7s-11.8,21.5-11.8,35v10.2h8.6l37.1-2.1c7,0,10.5,3.4,10.5,10s-3.5,10-10.5,10l-37.1-2.1
		c-3.9,0-6.8,0.1-8.6,0.3c0.4,19.7,1.2,41.9,2.6,66.4c1.3,24.6,2,48.8,2,72.6c0,29-5.7,43.6-16.9,43.6c-7.9,0-11.8-5.1-11.8-15.4
		C717.3,902.5,718.3,897.1,720,890.1z"/>
</g>
<g>
	<path fill="#1F2020" d="M1010.4,879.7c-11.3,0-20.8-4.5-28.5-13.4s-11.5-19.3-11.5-31s2.3-22.8,7-32.9
		c4.7-10.2,10.6-18.6,17.8-25.2s14.9-11.9,23.2-15.7c8.4-3.8,16.9-5.8,25.8-5.8c8.8,0,17.1,3.4,24.6,10c-0.2-13.4-0.8-28.2-1.9-44.3
		c-1.1-16-1.6-26.1-1.6-30.2s1.1-7.6,3.3-10.4c2.1-2.8,4.9-4.1,8.4-4.1c3.4,0,6.3,1.4,8.7,4.4c2.4,3,3.6,6.9,3.6,11.8
		s-0.8,16.4-2.3,34.4s-2.3,34.9-2.3,50.7s0.7,29.5,1.9,41c1.2,11.5,2.6,19.4,4,23.5c4.1,10.9,6.1,18.2,6.1,22.1
		c0,10.2-3.9,15.4-11.8,15.4c-9.5,0-15.1-10.1-16.7-30.3c-7.2,9.5-15.7,16.9-25.8,22.3C1032.4,877,1021.7,879.7,1010.4,879.7z
		 M1000.1,788.5c-8,7.9-12,17.6-12,29s4,21.2,12,29.2s17.7,12,29,12c11.4,0,20.9-4,28.6-12s11.5-18,11.5-30.2s-3.5-21.9-10.5-29
		c-7-7.2-16.5-10.8-28.6-10.8C1018.1,776.7,1008.1,780.6,1000.1,788.5z"/>
	<path fill="#1F2020" d="M1174.2,824.6l-32-2.7c-3.1,0-5.5,0.3-7.3,0.8c1.1,10.2,5.4,18.7,13.1,25.5c7.6,6.8,16.6,10.2,27,10.2
		c10.1,0,19.1-3.6,27.2-11c2.9-2.5,5-3.7,6.4-3.7s2.7,0.6,3.7,1.6c1.1,1.1,1.6,2.2,1.6,3.5c0,5.2-5.1,11.6-15.2,19.4
		c-10.1,7.7-21.6,11.5-34.4,11.5s-23.9-5.2-33.3-15.6s-14.1-23.3-14.1-38.7c0-19.7,7.4-36.3,22.3-49.7
		c14.9-13.4,31.3-20.2,49.2-20.2c7.5,0,13.6,1.3,18.4,3.9c4.7,2.6,7.1,6,7.1,10s-1.2,7.3-3.6,9.8s-4.8,3.7-7.1,3.7
		c-2.3,0-6.3-1.1-12-3.3c-5.7-2.1-11-3.3-16.2-3.3c-9.7,0-18,2.9-25.2,8.7s-11.8,13.1-14.1,21.6l37.1-2.1c8.3,0,12.4,3.3,12.4,9.7
		C1185.1,821.1,1181.5,824.6,1174.2,824.6z"/>
	<path fill="#1F2020" d="M1294,775.3c-0.9,0-12.1-0.7-33.6-2.1c0,2.3-0.4,11.2-1.1,26.6c-0.7,15.5-1.1,26.9-1.1,34.3
		s1.6,13.6,5,18.5s5,9.4,5,13.3s-1.3,7.2-4,9.8c-2.7,2.6-5.8,3.9-9.1,3.9c-8.9,0-13.4-7.1-13.4-21.2l-1.1-54.5
		c0-11.1-0.3-21-0.8-29.9h-6.4c-2.5,0-4.6-0.8-6.1-2.3c-1.6-1.5-2.4-3.6-2.4-6.3s0.8-4.8,2.4-6.3s3.6-2.3,6.1-2.3h5.7
		c-0.4-9.3-0.6-16.4-0.6-21.4c0-4.9,1.2-8.8,3.6-11.8s5.4-4.4,8.7-4.4c3.4,0,6.1,1.3,8.4,4.1c2.1,2.8,3.3,7.3,3.3,13.5
		s-0.3,13.2-0.8,20.7l32.5-2.1c7,0,10.5,3.4,10.5,10C1304.5,772.1,1301,775.3,1294,775.3z"/>
	<path fill="#1F2020" d="M1420.5,855c4,5.5,6,9.9,6,13.3s-0.9,6.1-2.7,8.2c-1.8,2-4.2,3.1-7.3,3.1c-7.4,0-13.9-7.6-19.6-22.8l-2.1-6
		c-9.1,19.2-22.8,28.8-41.1,28.8c-9.1,0-16.7-2.9-22.8-8.7s-9-13.2-9-21.9c0-13.6,4.7-25.3,14-35.2c9.3-9.9,21.5-15.2,36.6-15.8
		c-3.6-6.2-7.6-10.9-12-14.1s-8.4-5-12-5.5c-3.6-0.6-6.9-0.9-10.1-1s-5.6-0.8-7.4-2s-2.7-3.7-2.7-7.4s1.4-6.7,4.4-9
		s6.5-3.5,10.7-3.5c11.6,0,23.1,5.9,34.4,17.5s21.1,30,29.6,54.8l5.1,14.2C1413.8,845.2,1416.5,849.6,1420.5,855z M1365.8,812.2
		c-6.4,0-12.2,2.1-17.4,6.4c-5.1,4.3-7.7,9.9-7.7,16.7c0,6.8,2.3,12.5,6.8,17.1s10.1,6.8,16.5,6.8s12-2.3,16.7-6.8
		c4.7-4.6,7-10,7-16.2c0-4.5-0.8-8.6-2.4-12.5c-1.6-3.8-2.6-6.2-3-7.1C1377.8,813.6,1372.2,812.2,1365.8,812.2z"/>
	<path fill="#1F2020" d="M1462.3,725.1c-3.9,0-7.1-1.1-9.4-3.3c-2.3-2.1-3.5-5.3-3.5-9.4s1.4-7.7,4.3-10.7s6.2-4.4,10.2-4.4
		c3.9,0,7.1,1.2,9.5,3.4s3.6,5.4,3.6,9.5s-1.4,7.6-4.4,10.5C1469.7,723.7,1466.2,725.1,1462.3,725.1z M1453.7,858.4
		c0-22.6-0.5-42.3-1.3-59.4c-0.9-17-1.3-27.1-1.3-30.1s1.2-6,3.6-9s5.4-4.4,8.7-4.4s6.1,1.3,8.4,4.1c2.1,2.8,3.3,6.8,3.3,12.1
		c0,5.3-0.7,14.1-1.9,26.6s-1.9,25.4-1.9,38.9c0,5.4,1.2,10.6,3.4,15.5c2.2,4.9,3.4,9.4,3.4,13.4s-1.2,7.3-3.4,9.8s-5.3,3.7-9.1,3.7
		s-6.7-2.1-8.7-6.4C1454.7,868.9,1453.7,863.9,1453.7,858.4z"/>
	<path fill="#1F2020" d="M1515.7,858.4c0-69.7-0.5-111.4-1.3-125c-1.6-24.8-2.4-39.2-2.4-43.3c0-4.1,1.2-7.4,3.6-10
		c2.4-2.5,5.4-3.7,8.7-3.7c3.4,0,6.1,1.2,8.4,3.7c2.1,2.5,3.3,5.7,3.3,9.4c0,11.3-0.5,26.6-1.3,46c-1.8,45.5-2.7,79.4-2.7,101.6
		c0,5.4,1.7,10.6,5.3,15.5c3.5,4.9,5.3,9.4,5.3,13.3s-1.3,7.2-4,9.8c-2.7,2.6-5.8,3.9-9.1,3.9
		C1520.3,879.7,1515.7,872.6,1515.7,858.4z"/>
	<path fill="#1F2020" d="M1576,875.6c-4.1-2.7-6.1-6-6.1-10.1s1.2-7.3,3.6-9.7c2.4-2.4,4.8-3.6,7.3-3.6c2.4,0,6.4,1.1,12,3.3
		c5.6,2.1,11.3,3.3,17.4,3.3s12.1-1.5,18.1-4.7s9.1-7,9.1-11.5c0-4.6-2.3-8.1-6.8-10.7c-4.6-2.5-10.1-4.5-16.5-6s-12.9-3.3-19.4-5.3
		c-6.4-2-12-5-16.5-9c-4.6-4-6.8-9-6.8-14.9c0-9.7,6.1-18.9,18.5-27.8c12.4-8.8,26-13.3,40.9-13.3c7.2,0,12.7,1.3,16.5,3.9
		s5.8,6,5.8,10.1s-1.2,7.4-3.6,9.8s-4.8,3.6-7.3,3.6c-2.4,0-6.4-1.1-12-3.3c-5.6-2.1-11.3-3.3-17.4-3.3c-6,0-11.2,1.2-15.6,3.7
		s-6.6,5.6-6.6,9.1s3.5,6.7,10.4,9.4s14.5,4.8,22.8,6.4s15.8,4.8,22.8,9.5c6.9,4.7,10.4,10.8,10.4,18.4c0,11.6-6.8,22.3-20.4,32
		s-28.3,14.5-44.1,14.5C1585.5,879.7,1580.2,878.3,1576,875.6z"/>
</g>
</svg>
